<svg width="900" height="600" viewBox="0 0 900 600" fill="none" xmlns="http://www.w3.org/2000/svg">
  <rect width="900" height="600" fill="#ECFEFF"/>
  <rect y="430" width="900" height="170" fill="#CFFAFE"/>
  <rect x="210" y="220" width="170" height="220" rx="22" fill="#0E7490"/>
  <rect x="400" y="180" width="170" height="260" rx="22" fill="#0891B2"/>
  <rect x="590" y="240" width="170" height="200" rx="22" fill="#06B6D4"/>
  <g fill="#A5F3FC">
    <rect x="240" y="255" width="110" height="16" rx="6"/>
    <rect x="240" y="285" width="110" height="16" rx="6"/>
    <rect x="240" y="315" width="110" height="16" rx="6"/>
    <rect x="430" y="225" width="110" height="16" rx="6"/>
    <rect x="430" y="255" width="110" height="16" rx="6"/>
    <rect x="430" y="285" width="110" height="16" rx="6"/>
    <rect x="620" y="275" width="110" height="16" rx="6"/>
    <rect x="620" y="305" width="110" height="16" rx="6"/>
    <rect x="620" y="335" width="110" height="16" rx="6"/>
  </g>
  <circle cx="140" cy="120" r="56" fill="#FACC15"/>
</svg>
