<svg width="900" height="600" viewBox="0 0 900 600" fill="none" xmlns="http://www.w3.org/2000/svg">
  <rect width="900" height="600" fill="#EDF2FF"/>
  <rect y="430" width="900" height="170" fill="#D6E4FF"/>
  <rect x="130" y="220" width="180" height="230" rx="12" fill="#1D4ED8"/>
  <rect x="330" y="160" width="210" height="290" rx="12" fill="#2563EB"/>
  <rect x="560" y="250" width="220" height="200" rx="12" fill="#3B82F6"/>
  <g fill="#DBEAFE">
    <rect x="160" y="255" width="45" height="70" rx="5"/>
    <rect x="220" y="255" width="45" height="70" rx="5"/>
    <rect x="360" y="205" width="48" height="72" rx="5"/>
    <rect x="420" y="205" width="48" height="72" rx="5"/>
    <rect x="480" y="205" width="48" height="72" rx="5"/>
    <rect x="590" y="280" width="48" height="72" rx="5"/>
    <rect x="650" y="280" width="48" height="72" rx="5"/>
    <rect x="710" y="280" width="48" height="72" rx="5"/>
  </g>
  <circle cx="770" cy="105" r="52" fill="#F59E0B"/>
</svg>
