<svg width="1600" height="900" viewBox="0 0 1600 900" fill="none" xmlns="http://www.w3.org/2000/svg">
  <rect width="1600" height="900" fill="#052E2B"/>
  <rect y="520" width="1600" height="380" fill="#0B3A35"/>
  <g opacity="0.9">
    <circle cx="1330" cy="190" r="150" fill="#FCD34D"/>
    <circle cx="1330" cy="190" r="105" fill="#FDE68A"/>
  </g>
  <polygon points="220,680 520,460 820,680" fill="#14532D"/>
  <polygon points="600,700 930,430 1260,700" fill="#166534"/>
  <rect x="190" y="520" width="520" height="250" rx="20" fill="#0F766E"/>
  <g fill="#CCFBF1" opacity="0.8">
    <rect x="220" y="560" width="110" height="60" rx="8"/>
    <rect x="350" y="560" width="110" height="60" rx="8"/>
    <rect x="480" y="560" width="110" height="60" rx="8"/>
    <rect x="220" y="640" width="110" height="60" rx="8"/>
    <rect x="350" y="640" width="110" height="60" rx="8"/>
    <rect x="480" y="640" width="110" height="60" rx="8"/>
  </g>
</svg>
