<svg xmlns="http://www.w3.org/2000/svg" viewBox="0 0 800 500">
  <defs>
    <linearGradient id="sky3" x1="0" y1="0" x2="0" y2="1">
      <stop offset="0%" stop-color="#a5b4fc"/>
      <stop offset="100%" stop-color="#e0e7ff"/>
    </linearGradient>
  </defs>
  <rect width="800" height="500" fill="url(#sky3)"/>
  <rect x="0" y="340" width="800" height="160" fill="#86efac" rx="0"/>
  <rect x="250" y="200" width="300" height="180" fill="#f8fafc" rx="6"/>
  <polygon points="250,200 400,130 550,200" fill="#64748b"/>
  <g fill="#1e40af" opacity="0.65">
    <rect x="265" y="220" width="50" height="35" rx="2"/>
    <rect x="325" y="220" width="50" height="35" rx="2"/>
    <rect x="385" y="220" width="50" height="35" rx="2"/>
    <rect x="445" y="220" width="50" height="35" rx="2"/>
    <rect x="265" y="265" width="50" height="35" rx="2"/>
    <rect x="325" y="265" width="50" height="35" rx="2"/>
    <rect x="385" y="265" width="50" height="35" rx="2"/>
    <rect x="445" y="265" width="50" height="35" rx="2"/>
  </g>
  <rect x="360" y="310" width="80" height="70" fill="#d1fae5" rx="4"/>
  <rect x="550" y="280" width="120" height="100" fill="#a7f3d0" rx="8"/>
  <circle cx="120" cy="90" r="50" fill="#fbbf24"/>
</svg>
