<svg xmlns="http://www.w3.org/2000/svg" viewBox="0 0 800 500">
  <defs>
    <linearGradient id="sky2" x1="0" y1="0" x2="0" y2="1">
      <stop offset="0%" stop-color="#93c5fd"/>
      <stop offset="100%" stop-color="#dbeafe"/>
    </linearGradient>
  </defs>
  <rect width="800" height="500" fill="url(#sky2)"/>
  <rect x="0" y="350" width="800" height="150" fill="#6ee7b7" rx="0"/>
  <rect x="100" y="220" width="600" height="160" fill="#e2e8f0" rx="4"/>
  <rect x="100" y="200" width="600" height="20" fill="#94a3b8" rx="2"/>
  <g fill="#1e3a5f" opacity="0.6">
    <rect x="110" y="210" width="55" height="35" rx="2"/>
    <rect x="175" y="210" width="55" height="35" rx="2"/>
    <rect x="240" y="210" width="55" height="35" rx="2"/>
    <rect x="305" y="210" width="55" height="35" rx="2"/>
    <rect x="370" y="210" width="55" height="35" rx="2"/>
    <rect x="435" y="210" width="55" height="35" rx="2"/>
    <rect x="500" y="210" width="55" height="35" rx="2"/>
    <rect x="565" y="210" width="55" height="35" rx="2"/>
    <rect x="630" y="210" width="55" height="35" rx="2"/>
    <rect x="110" y="255" width="55" height="35" rx="2"/>
    <rect x="175" y="255" width="55" height="35" rx="2"/>
    <rect x="240" y="255" width="55" height="35" rx="2"/>
    <rect x="305" y="255" width="55" height="35" rx="2"/>
    <rect x="370" y="255" width="55" height="35" rx="2"/>
    <rect x="435" y="255" width="55" height="35" rx="2"/>
    <rect x="500" y="255" width="55" height="35" rx="2"/>
    <rect x="565" y="255" width="55" height="35" rx="2"/>
    <rect x="630" y="255" width="55" height="35" rx="2"/>
  </g>
  <circle cx="680" cy="60" r="45" fill="#fcd34d"/>
</svg>
