<svg xmlns="http://www.w3.org/2000/svg" viewBox="0 0 800 500">
  <defs>
    <linearGradient id="sky5" x1="0" y1="0" x2="0" y2="1">
      <stop offset="0%" stop-color="#6ee7b7"/>
      <stop offset="100%" stop-color="#d1fae5"/>
    </linearGradient>
  </defs>
  <rect width="800" height="500" fill="url(#sky5)"/>
  <rect x="0" y="350" width="800" height="150" fill="#a7f3d0" rx="0"/>
  <rect x="300" y="180" width="200" height="200" fill="#f8fafc" rx="6"/>
  <polygon points="300,180 400,110 500,180" fill="#64748b"/>
  <g fill="#1e40af" opacity="0.6">
    <rect x="315" y="200" width="40" height="30" rx="2"/>
    <rect x="365" y="200" width="40" height="30" rx="2"/>
    <rect x="415" y="200" width="40" height="30" rx="2"/>
    <rect x="460" y="200" width="25" height="30" rx="2"/>
    <rect x="315" y="240" width="40" height="30" rx="2"/>
    <rect x="365" y="240" width="40" height="30" rx="2"/>
    <rect x="415" y="240" width="40" height="30" rx="2"/>
    <rect x="460" y="240" width="25" height="30" rx="2"/>
  </g>
  <rect x="100" y="250" width="140" height="130" fill="#e0f2fe" rx="8"/>
  <rect x="560" y="260" width="140" height="120" fill="#e0f2fe" rx="8"/>
  <circle cx="650" cy="60" r="45" fill="#fbbf24"/>
</svg>
