<svg xmlns="http://www.w3.org/2000/svg" viewBox="0 0 800 500">
  <defs>
    <linearGradient id="sky6" x1="0" y1="0" x2="0" y2="1">
      <stop offset="0%" stop-color="#c4b5fd"/>
      <stop offset="100%" stop-color="#ede9fe"/>
    </linearGradient>
  </defs>
  <rect width="800" height="500" fill="url(#sky6)"/>
  <rect x="0" y="370" width="800" height="130" fill="#86efac" rx="0"/>
  <rect x="100" y="250" width="280" height="140" fill="#f1f5f9" rx="6"/>
  <polygon points="100,250 240,170 380,250" fill="#94a3b8"/>
  <g fill="#1e40af" opacity="0.6">
    <rect x="115" y="270" width="35" height="25" rx="2"/>
    <rect x="160" y="270" width="35" height="25" rx="2"/>
    <rect x="205" y="270" width="35" height="25" rx="2"/>
    <rect x="250" y="270" width="35" height="25" rx="2"/>
    <rect x="295" y="270" width="35" height="25" rx="2"/>
    <rect x="340" y="270" width="30" height="25" rx="2"/>
    <rect x="115" y="305" width="35" height="25" rx="2"/>
    <rect x="160" y="305" width="35" height="25" rx="2"/>
    <rect x="205" y="305" width="35" height="25" rx="2"/>
    <rect x="250" y="305" width="35" height="25" rx="2"/>
    <rect x="295" y="305" width="35" height="25" rx="2"/>
    <rect x="340" y="305" width="30" height="25" rx="2"/>
  </g>
  <rect x="450" y="280" width="250" height="110" fill="#e2e8f0" rx="6"/>
  <rect x="450" y="260" width="250" height="20" fill="#64748b" rx="2"/>
  <g fill="#1e3a5f" opacity="0.5">
    <rect x="460" y="290" width="40" height="28" rx="2"/>
    <rect x="510" y="290" width="40" height="28" rx="2"/>
    <rect x="560" y="290" width="40" height="28" rx="2"/>
    <rect x="610" y="290" width="40" height="28" rx="2"/>
    <rect x="660" y="290" width="30" height="28" rx="2"/>
    <rect x="460" y="328" width="40" height="28" rx="2"/>
    <rect x="510" y="328" width="40" height="28" rx="2"/>
    <rect x="560" y="328" width="40" height="28" rx="2"/>
    <rect x="610" y="328" width="40" height="28" rx="2"/>
    <rect x="660" y="328" width="30" height="28" rx="2"/>
  </g>
  <circle cx="680" cy="60" r="50" fill="#fcd34d"/>
</svg>
