<svg xmlns="http://www.w3.org/2000/svg" viewBox="0 0 800 500">
  <defs>
    <linearGradient id="sky1" x1="0" y1="0" x2="0" y2="1">
      <stop offset="0%" stop-color="#7dd3fc"/>
      <stop offset="100%" stop-color="#e0f2fe"/>
    </linearGradient>
  </defs>
  <rect width="800" height="500" fill="url(#sky1)"/>
  <rect x="0" y="320" width="800" height="180" fill="#86efac" rx="0"/>
  <rect x="200" y="180" width="200" height="180" fill="#f1f5f9" rx="8"/>
  <polygon points="200,180 300,120 400,180" fill="#94a3b8"/>
  <g fill="#1e40af" opacity="0.7">
    <rect x="210" y="200" width="40" height="30" rx="2"/>
    <rect x="260" y="200" width="40" height="30" rx="2"/>
    <rect x="310" y="200" width="40" height="30" rx="2"/>
    <rect x="360" y="200" width="30" height="30" rx="2"/>
    <rect x="210" y="240" width="40" height="30" rx="2"/>
    <rect x="260" y="240" width="40" height="30" rx="2"/>
    <rect x="310" y="240" width="40" height="30" rx="2"/>
    <rect x="360" y="240" width="30" height="30" rx="2"/>
  </g>
  <circle cx="650" cy="80" r="50" fill="#fbbf24"/>
</svg>
