<svg width="256" height="256" viewBox="0 0 256 256" fill="none" xmlns="http://www.w3.org/2000/svg">
  <rect width="256" height="256" rx="56" fill="#0F766E"/>
  <circle cx="190" cy="66" r="26" fill="#FCD34D"/>
  <path d="M28 182C28 160 45 143 67 143H189C211 143 228 160 228 182V200H28V182Z" fill="#14532D"/>
  <rect x="64" y="94" width="128" height="78" rx="12" fill="#164E63"/>
  <g fill="#A7F3D0">
    <rect x="76" y="106" width="22" height="18" rx="4"/>
    <rect x="104" y="106" width="22" height="18" rx="4"/>
    <rect x="132" y="106" width="22" height="18" rx="4"/>
    <rect x="160" y="106" width="22" height="18" rx="4"/>
    <rect x="76" y="130" width="22" height="18" rx="4"/>
    <rect x="104" y="130" width="22" height="18" rx="4"/>
    <rect x="132" y="130" width="22" height="18" rx="4"/>
    <rect x="160" y="130" width="22" height="18" rx="4"/>
  </g>
  <path d="M92 57C110 45 146 45 164 57" stroke="#E2E8F0" stroke-width="8" stroke-linecap="round"/>
</svg>
